<svg xmlns="http://www.w3.org/2000/svg" width="29.538" height="29.477" viewBox="0 0 29.538 29.477">
  <g id="wallet" transform="translate(0 -0.352)">
    <path id="Path_11264" data-name="Path 11264" d="M34.182,21.98v2.708a1.477,1.477,0,0,1-1.476,1.477h-.186V32.5a1.969,1.969,0,0,1-1.969,1.969H7.6A1.969,1.969,0,0,1,5.628,32.5V14.165A1.969,1.969,0,0,1,7.6,12.2H9.628V7.457A1.477,1.477,0,0,1,11.105,5.98h8.308A1.477,1.477,0,0,1,20.78,6.9l7.639,2.2a1.477,1.477,0,0,1,1.01,1.828L29.063,12.2h1.489a1.969,1.969,0,0,1,1.969,1.969V20.5h.185A1.477,1.477,0,0,1,34.182,21.98Z" transform="translate(-5.136 -5.136)" fill="#b9dcff"/>
    <path id="Path_11265" data-name="Path 11265" d="M62.621,12.2H51.359V7.457A1.477,1.477,0,0,1,52.836,5.98h8.308A1.477,1.477,0,0,1,62.51,6.9C62.66,7.261,62.621,7.01,62.621,12.2Z" transform="translate(-46.867 -5.136)" fill="#b9dcff"/>
    <path id="Path_11266" data-name="Path 11266" d="M187.5,20.5l-.366,1.271h-8.173c0-5.182.04-4.934-.11-5.3l7.639,2.2A1.477,1.477,0,0,1,187.5,20.5Z" transform="translate(-163.206 -14.708)" fill="#e8f3ff"/>
    <path id="Path_11267" data-name="Path 11267" d="M251.824,173.495V176.2a1.477,1.477,0,0,1-1.476,1.477h-4.74a1.477,1.477,0,0,1-1.477-1.477v-2.708a1.477,1.477,0,0,1,1.477-1.477h4.738A1.477,1.477,0,0,1,251.824,173.495Z" transform="translate(-222.778 -156.651)" fill="#d1e7ff"/>
    <path id="Path_11268" data-name="Path 11268" d="M244.775,37.326a1.477,1.477,0,0,1,1.01,1.828l-.366,1.271h-1.892a2.522,2.522,0,0,1-.178-3.51Z" transform="translate(-221.493 -33.365)" fill="#d1e7ff"/>
    <path id="Path_11269" data-name="Path 11269" d="M250.351,173.863H248.32a2.345,2.345,0,0,0-2.345,2.345.923.923,0,0,1-1.844.071c0-.062,0-2.843,0-2.785a1.477,1.477,0,0,1,1.477-1.477h4.738A.923.923,0,1,1,250.351,173.863Z" transform="translate(-222.775 -156.65)" fill="#e8f3ff"/>
    <path id="Path_11270" data-name="Path 11270" d="M32.521,79.008A1.723,1.723,0,0,1,30.8,80.731H26.182A16.861,16.861,0,0,0,9.321,97.592,1.723,1.723,0,0,1,7.6,99.315a1.969,1.969,0,0,1-1.969-1.969V79.008A1.969,1.969,0,0,1,7.6,77.039H30.551A1.969,1.969,0,0,1,32.521,79.008Z" transform="translate(-5.136 -69.979)" fill="#d1e7ff"/>
    <path id="Path_11271" data-name="Path 11271" d="M61.473,8.442H55.3a1.477,1.477,0,0,0-1.477,1.477V12.2H51.359V7.457A1.477,1.477,0,0,1,52.836,5.98h8.308a1.476,1.476,0,0,1,1.371.928A1.119,1.119,0,0,1,61.473,8.442Z" transform="translate(-46.867 -5.136)" fill="#d1e7ff"/>
    <path id="Path_11272" data-name="Path 11272" d="M87.24,5.98h2.646V12.2H87.24Z" transform="translate(-79.609 -5.136)" fill="#a2d0ff"/>
    <path id="Path_11273" data-name="Path 11273" d="M89.886,5.98V8.442H88.04a1.466,1.466,0,0,0-.8.236V5.98Z" transform="translate(-79.609 -5.136)" fill="#b9dcff"/>
    <path id="Path_11274" data-name="Path 11274" d="M180.236,21.768h-1.277c0-5.182.04-4.934-.11-5.3l1.378.4C180.24,16.981,180.236,16.644,180.236,21.768Z" transform="translate(-163.206 -14.708)" fill="#d1e7ff"/>
    <path id="Path_11275" data-name="Path 11275" d="M27.877,14.9V9.029a2.464,2.464,0,0,0-2.462-2.462h-.834l.185-.643a1.968,1.968,0,0,0-1.348-2.437L17.832,1.879a.492.492,0,0,0-.272.946l3.512,1.011a3.008,3.008,0,0,0-.011,2.731H10.769V2.69a.492.492,0,1,0-.985,0V6.567H8.123V2.69a.492.492,0,0,0-.985,0V6.567H4.985V2.321a.986.986,0,0,1,.985-.985h8.308a.986.986,0,0,1,.985.985V5.029a.492.492,0,0,0,.985,0V2.321A1.971,1.971,0,0,0,14.277.352H5.969A1.971,1.971,0,0,0,4,2.321V6.567H2.462A2.464,2.464,0,0,0,0,9.029V27.367a2.464,2.464,0,0,0,2.462,2.462H25.415a2.464,2.464,0,0,0,2.462-2.462v-3.6a.492.492,0,1,0-.985,0v3.6a1.479,1.479,0,0,1-1.477,1.477H2.462A1.479,1.479,0,0,1,.985,27.367V9.029A1.479,1.479,0,0,1,2.462,7.552H25.415a1.479,1.479,0,0,1,1.477,1.477v5.846H22.831a1.971,1.971,0,0,0-1.969,1.969v2.708a1.971,1.971,0,0,0,1.969,1.969h4.74a1.971,1.971,0,0,0,1.968-1.969V16.844A1.972,1.972,0,0,0,27.877,14.9ZM22.045,4.117l1.1.317a.984.984,0,0,1,.674,1.219l-.263.915H22.24A2.027,2.027,0,0,1,22.045,4.117Zm6.509,15.435a.986.986,0,0,1-.985.985H22.831a.986.986,0,0,1-.985-.985V16.844a.986.986,0,0,1,.985-.985h4.738a.986.986,0,0,1,.985.985ZM24.677,18.2a.492.492,0,0,1-.492.492h-.738a.492.492,0,1,1,0-.985h.738A.492.492,0,0,1,24.677,18.2Z" transform="translate(0 0)" fill="#3f9eff"/>
  </g>
</svg>
