<svg xmlns="http://www.w3.org/2000/svg" width="1160" height="232" viewBox="0 0 1160 232">
    <defs>
        <style>
            .cls-2{fill:#e1ebff}.cls-3{fill:#36c9f4}.cls-4{fill:#3f3d56}.cls-6{fill:#9d9cb5}.cls-7{fill:none;stroke:#535461;stroke-miterlimit:10;stroke-width:2px}
        </style>
    </defs>
    <g id="cover-default" transform="translate(-4242 10184)">
        <g id="Component_212" transform="translate(4242 -10184)">
            <rect id="Rectangle_3882" width="1160" height="232" fill="#f0f6ff" rx="20"/>
            <g id="Group_4195" transform="translate(100.051 47.528)">
                <circle id="Ellipse_763" cx="3.209" cy="3.209" r="3.209" class="cls-2"/>
                <circle id="Ellipse_764" cx="3.209" cy="3.209" r="3.209" class="cls-2" transform="translate(16.244)"/>
                <circle id="Ellipse_765" cx="3.209" cy="3.209" r="3.209" class="cls-2" transform="translate(32.488)"/>
                <circle id="Ellipse_766" cx="3.209" cy="3.209" r="3.209" class="cls-2" transform="translate(48.732)"/>
                <circle id="Ellipse_767" cx="3.209" cy="3.209" r="3.209" class="cls-2" transform="translate(64.976)"/>
                <circle id="Ellipse_768" cx="3.209" cy="3.209" r="3.209" class="cls-2" transform="translate(81.219)"/>
                <circle id="Ellipse_769" cx="3.209" cy="3.209" r="3.209" class="cls-2" transform="translate(97.463)"/>
                <circle id="Ellipse_770" cx="3.209" cy="3.209" r="3.209" class="cls-2" transform="translate(113.707)"/>
                <circle id="Ellipse_771" cx="3.209" cy="3.209" r="3.209" class="cls-2" transform="translate(129.951)"/>
                <circle id="Ellipse_772" cx="3.209" cy="3.209" r="3.209" class="cls-2" transform="translate(146.195)"/>
                <circle id="Ellipse_773" cx="3.209" cy="3.209" r="3.209" class="cls-2" transform="translate(0 16.448)"/>
                <circle id="Ellipse_774" cx="3.209" cy="3.209" r="3.209" class="cls-2" transform="translate(16.244 16.448)"/>
                <circle id="Ellipse_775" cx="3.209" cy="3.209" r="3.209" class="cls-2" transform="translate(32.488 16.448)"/>
                <circle id="Ellipse_776" cx="3.209" cy="3.209" r="3.209" class="cls-2" transform="translate(48.732 16.448)"/>
                <circle id="Ellipse_777" cx="3.209" cy="3.209" r="3.209" class="cls-2" transform="translate(64.976 16.448)"/>
                <circle id="Ellipse_778" cx="3.209" cy="3.209" r="3.209" class="cls-2" transform="translate(81.219 16.448)"/>
                <circle id="Ellipse_779" cx="3.209" cy="3.209" r="3.209" class="cls-2" transform="translate(97.463 16.448)"/>
                <circle id="Ellipse_780" cx="3.209" cy="3.209" r="3.209" class="cls-2" transform="translate(113.707 16.448)"/>
                <circle id="Ellipse_781" cx="3.209" cy="3.209" r="3.209" class="cls-2" transform="translate(129.951 16.448)"/>
                <circle id="Ellipse_782" cx="3.209" cy="3.209" r="3.209" class="cls-2" transform="translate(146.195 16.448)"/>
                <circle id="Ellipse_783" cx="3.209" cy="3.209" r="3.209" class="cls-2" transform="translate(0 32.896)"/>
                <circle id="Ellipse_784" cx="3.209" cy="3.209" r="3.209" class="cls-2" transform="translate(16.244 32.896)"/>
                <circle id="Ellipse_785" cx="3.209" cy="3.209" r="3.209" class="cls-2" transform="translate(32.488 32.896)"/>
                <circle id="Ellipse_786" cx="3.209" cy="3.209" r="3.209" class="cls-2" transform="translate(48.732 32.896)"/>
                <circle id="Ellipse_787" cx="3.209" cy="3.209" r="3.209" class="cls-2" transform="translate(64.976 32.896)"/>
                <circle id="Ellipse_788" cx="3.209" cy="3.209" r="3.209" class="cls-2" transform="translate(81.219 32.896)"/>
                <circle id="Ellipse_789" cx="3.209" cy="3.209" r="3.209" class="cls-2" transform="translate(97.463 32.896)"/>
                <circle id="Ellipse_790" cx="3.209" cy="3.209" r="3.209" class="cls-2" transform="translate(113.707 32.896)"/>
                <circle id="Ellipse_791" cx="3.209" cy="3.209" r="3.209" class="cls-2" transform="translate(129.951 32.896)"/>
                <circle id="Ellipse_792" cx="3.209" cy="3.209" r="3.209" class="cls-2" transform="translate(146.195 32.896)"/>
                <circle id="Ellipse_793" cx="3.209" cy="3.209" r="3.209" class="cls-2" transform="translate(0 49.343)"/>
                <circle id="Ellipse_794" cx="3.209" cy="3.209" r="3.209" class="cls-2" transform="translate(16.244 49.343)"/>
                <circle id="Ellipse_795" cx="3.209" cy="3.209" r="3.209" class="cls-2" transform="translate(32.488 49.343)"/>
                <circle id="Ellipse_796" cx="3.209" cy="3.209" r="3.209" class="cls-2" transform="translate(48.732 49.343)"/>
                <circle id="Ellipse_797" cx="3.209" cy="3.209" r="3.209" class="cls-2" transform="translate(64.976 49.343)"/>
                <circle id="Ellipse_798" cx="3.209" cy="3.209" r="3.209" class="cls-2" transform="translate(81.219 49.343)"/>
                <circle id="Ellipse_799" cx="3.209" cy="3.209" r="3.209" class="cls-2" transform="translate(97.463 49.343)"/>
                <circle id="Ellipse_800" cx="3.209" cy="3.209" r="3.209" class="cls-2" transform="translate(113.707 49.343)"/>
                <circle id="Ellipse_801" cx="3.209" cy="3.209" r="3.209" class="cls-2" transform="translate(129.951 49.343)"/>
                <circle id="Ellipse_802" cx="3.209" cy="3.209" r="3.209" class="cls-2" transform="translate(146.195 49.343)"/>
                <circle id="Ellipse_803" cx="3.209" cy="3.209" r="3.209" class="cls-2" transform="translate(0 65.791)"/>
                <circle id="Ellipse_804" cx="3.209" cy="3.209" r="3.209" class="cls-2" transform="translate(16.244 65.791)"/>
                <circle id="Ellipse_805" cx="3.209" cy="3.209" r="3.209" class="cls-2" transform="translate(32.488 65.791)"/>
                <circle id="Ellipse_813" cx="3.209" cy="3.209" r="3.209" class="cls-2" transform="translate(0 82.239)"/>
                <circle id="Ellipse_814" cx="3.209" cy="3.209" r="3.209" class="cls-2" transform="translate(16.244 82.239)"/>
                <circle id="Ellipse_815" cx="3.209" cy="3.209" r="3.209" class="cls-2" transform="translate(32.488 82.239)"/>
            </g>
            <g id="header-tree-vector" transform="translate(821.884 29)">
                <circle id="Ellipse_582" cx="17.599" cy="17.599" r="17.599" class="cls-2" transform="translate(0 .247)"/>
                <circle id="Ellipse_583" cx="43.234" cy="43.234" r="43.234" class="cls-3" transform="translate(13.066)"/>
                <path id="Path_10393" d="M109.6 303.934h-8.855l4.039-136.734z" class="cls-4" transform="translate(-49.136 -130.479)"/>
                <path id="Path_10394" d="M111.449 213.709l9.506-13.152-9.636 16.408-1.042-1.823z" class="cls-4" transform="translate(-55.019 -151.073)"/>
                <path id="Path_10395" d="M95.277 248.426l-9.506-13.152 9.636 16.408 1.042-1.823z" class="cls-4" transform="translate(-39.89 -172.507)"/>
            </g>
            <g id="undraw_Letter_re_8m03" transform="translate(620.175 63.532)">
                <path id="Path_21611" d="M416.368 352.475l-61.911-13.355-.8-.173a2.227 2.227 0 0 0-2.469 3.164l24.581 49.918a2.235 2.235 0 0 0 1.66 1.215 2.212 2.212 0 0 0 1.95-.669l17.073-18a1.3 1.3 0 0 1 .952-.416 1.34 1.34 0 0 1 1.193.694l3.5 6.468a2.176 2.176 0 0 0 2.436 1.117h.017a2.179 2.179 0 0 0 1.726-2.069l.7-14.932a1.362 1.362 0 0 1 .137-.536 1.45 1.45 0 0 1 .351-.433l9.85-8.085a2.229 2.229 0 0 0-.941-3.9zm.378 3.214l-9.85 8.085a2.2 2.2 0 0 0-.347.35l-52.2-23.675a.775.775 0 0 0-.143-.05.892.892 0 0 0-.743 1.587l42.923 31.53a2.134 2.134 0 0 0-.581.443l-17.073 18a1.336 1.336 0 0 1-2.166-.328l-24.586-49.915a1.339 1.339 0 0 1 1.482-1.9l.824.178 61.891 13.35a1.339 1.339 0 0 1 .568 2.342z" class="cls-3" transform="translate(-248.071 -307.423)"/>
                <path id="Rectangle_4508" d="M0 0H144.29V0.998H0z" class="cls-4" transform="translate(180.391 138.038)"/>
                <circle id="Ellipse_762" cx="9.426" cy="9.426" r="9.426" class="cls-2" transform="translate(0 49.574)"/>
                <path id="Path_21624" d="M9.426 0A9.426 9.426 0 1 1 0 9.426 9.426 9.426 0 0 1 9.426 0z" class="cls-2" transform="translate(324.359)"/>
                <path id="Path_21622" d="M416.368 352.475l-61.911-13.355-.8-.173a2.227 2.227 0 0 0-2.469 3.164l24.581 49.918a2.235 2.235 0 0 0 1.66 1.215 2.212 2.212 0 0 0 1.95-.669l17.073-18a1.3 1.3 0 0 1 .952-.416 1.34 1.34 0 0 1 1.193.694l3.5 6.468a2.176 2.176 0 0 0 2.436 1.117h.017a2.179 2.179 0 0 0 1.726-2.069l.7-14.932a1.362 1.362 0 0 1 .137-.536 1.45 1.45 0 0 1 .351-.433l9.85-8.085a2.229 2.229 0 0 0-.941-3.9zm.378 3.214l-9.85 8.085a2.2 2.2 0 0 0-.347.35 2.07 2.07 0 0 0-.237.372 2.138 2.138 0 0 0-.161.423 2.108 2.108 0 0 0-.07.467l-.7 14.932a1.293 1.293 0 0 1-1.034 1.241h-.009a1.3 1.3 0 0 1-1.465-.665l-3.5-6.473a2.222 2.222 0 0 0-1.826-1.16h-.151a2.166 2.166 0 0 0-1.012.251 2.137 2.137 0 0 0-.581.443l-17.073 18a1.336 1.336 0 0 1-2.166-.328l-24.584-49.911a1.339 1.339 0 0 1 1.482-1.9l.824.178 61.891 13.35a1.339 1.339 0 0 1 .568 2.342z" class="cls-4" transform="translate(-248.071 -307.423)"/>
                <path id="Path_21623" d="M409.406 366.049l-.368.811-.227-.1-52.164-23.66 43.557 32 .115.089-.525.718-.757-.557-42.923-31.53a.892.892 0 0 1 .743-1.587.78.78 0 0 1 .143.05l52.2 23.676z" class="cls-4" transform="translate(-250.73 -305.353)"/>
            </g>
        </g>
        <g id="Group_4190" transform="translate(4511.386 -10160.467)">
            <path id="Path_21606" d="M84.451 246.638a4.478 4.478 0 0 0-4.375-5.467 4.46 4.46 0 0 0-.658.054 10.538 10.538 0 0 0-20.745-2.532c-.114-.009-.227-.018-.343-.018a4.484 4.484 0 0 0-4.449 3.94 6.41 6.41 0 0 0-7.011 4.022z" class="cls-2" transform="translate(353.539 -230.773)"/>
            <path id="Path_21607" d="M80.266 126.513a7.393 7.393 0 0 0-8.346-8.975 17.473 17.473 0 0 0-34.4-4.2c-.189-.014-.377-.029-.569-.029a7.437 7.437 0 0 0-7.378 6.534 10.624 10.624 0 0 0-11.625 6.668z" class="cls-2" transform="translate(-17.95 .234)"/>
            <path id="Path_21609" d="M508.678 98.534a3.5 3.5 0 0 1 3.948-4.245 8.265 8.265 0 0 1 16.27-1.986c.089-.007.178-.014.269-.014a3.517 3.517 0 0 1 3.49 3.09 5.028 5.028 0 0 1 5.5 3.154z" class="cls-2" transform="translate(-413.621 -84.761)"/>
            <path id="Path_21610" d="M666.965 180.105a10.419 10.419 0 0 1 10.287-12.305h.059c-.022-.391-.059-.779-.059-1.175a20.747 20.747 0 0 1 41.266-3.083 10.751 10.751 0 0 1 6.058 3.016 10.534 10.534 0 0 1 17.636 5.786c.382-.029.766-.058 1.156-.058a15.091 15.091 0 0 1 13.226 7.818z" class="cls-2" transform="translate(-485.851 -79.268)"/>
        </g>
        <g id="header-flower-pot" transform="translate(4354.778 -10147.28)">
            <rect id="Rectangle_3996" width="3.072" height="69.093" fill="#535461" rx="1.536" transform="translate(63.215 7.593)"/>
            <path id="Path_10505" d="M176.127 666.53l-.194 3.115-.267 4.393-.115 1.818-.273 4.393-.115 1.818-.273 4.387-3.1 49.962a8.484 8.484 0 0 1-8.441 7.956h-16.084a8.483 8.483 0 0 1-8.441-7.938l-3.1-49.962-.267-4.387-.115-1.818-.279-4.393-.109-1.818-.273-4.393-.194-3.115a4.381 4.381 0 0 1 4.375-4.648h32.9a4.369 4.369 0 0 1 4.369 4.63z" class="cls-4" transform="translate(-90.558 -590.056)"/>
            <path id="Path_10506" d="M114.514 591.66l-.273 4.393H73.527l-.267-4.393z" class="cls-6" transform="translate(-29.133 -512.072)"/>
            <path id="Path_10507" d="M114.381 601.93l-.273 4.4H74.163l-.273-4.4z" class="cls-6" transform="translate(-29.381 -516.119)"/>
            <path id="Path_10508" d="M114.239 612.21l-.267 4.393H74.8l-.273-4.393z" class="cls-6" transform="translate(-29.634 -520.169)"/>
            <path id="Path_10509" d="M101.437 589.721c17.87 12.925 25.311 33.153 25.311 33.153s-21.536-.739-39.388-13.671S62 576.05 62 576.05s21.56.739 39.437 13.671z" class="cls-3" transform="translate(-62 -556.229)"/>
            <path id="Path_10510" d="M62 576.05s22.354 12.41 29.523 22.681 35.2 24.142 35.2 24.142" class="cls-7" transform="translate(-62 -556.229)"/>
            <path id="Path_10511" d="M132.165 550.781c9.732 7.035 13.78 18.046 13.78 18.046s-11.719-.406-21.451-7.441-13.774-18.046-13.774-18.046 11.719.4 21.445 7.441z" class="cls-3" transform="translate(-81.197 -543.34)"/>
            <path id="Path_10512" d="M110.72 543.34s12.162 6.757 16.07 12.344 19.155 13.144 19.155 13.144" class="cls-7" transform="translate(-81.197 -543.34)"/>
            <path id="Path_10513" d="M183.377 573.973C172.2 586.256 169.84 602.3 169.84 602.3s15.755-3.866 26.929-16.149 13.537-28.323 13.537-28.323-15.755 3.862-26.929 16.145z" class="cls-3" transform="translate(-104.492 -549.049)"/>
            <path id="Path_10514" d="M210.307 557.83s-14.543 12.586-18.258 21.264S169.84 602.3 169.84 602.3" class="cls-7" transform="translate(-104.492 -549.05)"/>
        </g>
    </g>
</svg>
