<svg id="play-button" xmlns="http://www.w3.org/2000/svg" width="86.553" height="86.553" viewBox="0 0 86.553 86.553">
  <g id="Group_3202" data-name="Group 3202" transform="translate(0 0)">
    <g id="noun_play_801662" opacity="0.33">
      <path id="Path_9202" data-name="Path 9202"
            d="M85.9,22.823S83.118,9.508,71.089,4.829C65.433,2.67,55.11,1.59,44.967,1.5,34.823,1.59,24.5,2.67,18.844,4.829,6.816,9.508,4.033,22.823,4.033,22.823A91.046,91.046,0,0,0,1.7,44.777,86.333,86.333,0,0,0,4.033,66.73S6.816,80.046,18.844,84.724c5.655,2.159,15.979,3.239,26.122,3.329,10.144-.09,20.467-1.08,26.122-3.329C83.118,80.046,85.9,66.73,85.9,66.73a91.045,91.045,0,0,0,2.334-21.953A91.045,91.045,0,0,0,85.9,22.823Z"
            transform="translate(-1.69 -1.5)" fill="#f2f2f2"/>
    </g>
  </g>
  <g id="noun_play_801662-2" data-name="noun_play_801662" opacity="0.5" transform="translate(8.655 8.655)">
    <path id="Path_9202-2" data-name="Path 9202"
          d="M69.058,18.559S66.832,7.906,57.209,4.163C52.685,2.436,44.426,1.572,36.311,1.5c-8.115.072-16.374.936-20.9,2.663C5.79,7.906,3.564,18.559,3.564,18.559A72.837,72.837,0,0,0,1.7,36.121,69.067,69.067,0,0,0,3.564,53.684s2.226,10.653,11.849,14.4c4.524,1.727,12.783,2.591,20.9,2.663,8.115-.072,16.374-.864,20.9-2.663,9.623-3.743,11.849-14.4,11.849-14.4a72.837,72.837,0,0,0,1.867-17.563A72.837,72.837,0,0,0,69.058,18.559Z"
          transform="translate(-1.69 -1.5)" fill="#000000"/>
  </g>
  <path id="Path_10648" data-name="Path 10648"
        d="M11.607,1.718a3.462,3.462,0,0,1,5.981,0L28.719,20.8A3.462,3.462,0,0,1,25.728,26H3.467A3.462,3.462,0,0,1,.477,20.8Z"
        transform="translate(59.051 29.543) rotate(90)" fill="#fff"/>
</svg>
